<svg xmlns="http://www.w3.org/2000/svg" xmlns:xlink="http://www.w3.org/1999/xlink" width="500" zoomAndPan="magnify" viewBox="0 0 375 374.999991" height="500" preserveAspectRatio="xMidYMid meet" version="1.0"><defs><clipPath id="7dfeeb7306"><path d="M 149.511719 106.214844 L 364.832031 106.214844 L 364.832031 268.785156 L 149.511719 268.785156 Z M 149.511719 106.214844 " clip-rule="nonzero"/></clipPath><clipPath id="444c39816a"><path d="M 10.167969 256 L 225.488281 256 L 225.488281 268.515625 L 10.167969 268.515625 Z M 10.167969 256 " clip-rule="nonzero"/></clipPath><clipPath id="6390292f07"><path d="M 23 139.320312 L 213 139.320312 L 213 251 L 23 251 Z M 23 139.320312 " clip-rule="nonzero"/></clipPath></defs><path fill="#f77f00" d="M 173.914062 224.464844 L 214.824219 224.464844 C 216.738281 224.464844 218.414062 222.789062 218.414062 220.875 L 218.414062 196.472656 C 218.414062 194.558594 216.738281 192.882812 214.824219 192.882812 L 173.914062 192.882812 C 172 192.882812 170.324219 194.558594 170.324219 196.472656 L 170.324219 220.875 C 170.324219 222.789062 172 224.464844 173.914062 224.464844 Z M 173.914062 224.464844 " fill-opacity="1" fill-rule="nonzero"/><g clip-path="url(#7dfeeb7306)"><path fill="#f77f00" d="M 363.636719 202.453125 C 362.917969 201.734375 361.960938 201.496094 360.765625 201.496094 C 358.613281 201.734375 356.457031 201.734375 354.542969 201.496094 L 354.542969 120.152344 C 354.542969 112.496094 348.324219 106.277344 340.667969 106.277344 L 163.625 106.277344 C 155.730469 106.277344 149.511719 112.496094 149.511719 120.152344 L 149.511719 231.164062 C 149.511719 238.816406 155.730469 245.039062 163.386719 245.039062 L 302.628906 245.039062 C 309.085938 256.761719 320.332031 266.332031 330.378906 268.722656 C 330.621094 268.722656 330.859375 268.722656 331.335938 268.722656 C 331.816406 268.722656 331.816406 268.722656 332.292969 268.722656 C 346.886719 265.375 364.832031 245.996094 364.832031 227.574219 L 364.832031 205.085938 C 364.832031 204.128906 364.355469 203.171875 363.636719 202.453125 Z M 342.582031 225.421875 L 331.335938 238.578125 C 330.621094 239.296875 329.902344 239.773438 328.945312 239.773438 C 328.945312 239.773438 328.707031 239.773438 328.707031 239.773438 C 327.75 239.773438 327.03125 239.535156 326.3125 238.816406 L 320.332031 233.792969 C 318.898438 232.597656 318.65625 230.207031 319.855469 228.769531 C 321.050781 227.335938 323.441406 227.09375 324.878906 228.292969 L 327.988281 230.921875 L 336.839844 220.394531 C 338.035156 218.960938 340.429688 218.722656 341.863281 219.917969 C 343.539062 221.59375 343.777344 223.746094 342.582031 225.421875 Z M 347.367188 200.300781 C 342.582031 198.625 338.277344 195.753906 333.730469 191.449219 C 332.292969 190.011719 330.140625 190.011719 328.707031 191.449219 C 320.332031 199.820312 311.957031 202.929688 301.671875 201.734375 C 300.714844 201.734375 299.757812 201.972656 298.800781 202.691406 C 298.082031 203.410156 297.605469 204.367188 297.605469 205.324219 L 297.605469 227.8125 C 297.605469 231.164062 298.320312 234.75 299.277344 238.101562 L 163.386719 238.101562 C 159.558594 238.101562 156.6875 234.992188 156.6875 231.402344 L 156.6875 163.214844 L 347.367188 163.214844 Z M 347.367188 132.59375 L 156.6875 132.59375 L 156.6875 120.152344 C 156.6875 116.324219 159.796875 113.453125 163.386719 113.453125 L 340.429688 113.453125 C 344.257812 113.453125 347.128906 116.5625 347.128906 120.152344 L 347.128906 132.59375 Z M 347.367188 132.59375 " fill-opacity="1" fill-rule="nonzero"/></g><path fill="#f77f00" d="M 236.597656 222.070312 L 252.148438 222.070312 C 254.0625 222.070312 255.734375 220.394531 255.734375 218.480469 C 255.734375 216.570312 254.0625 214.894531 252.148438 214.894531 L 236.597656 214.894531 C 234.683594 214.894531 233.007812 216.570312 233.007812 218.480469 C 233.007812 220.394531 234.683594 222.070312 236.597656 222.070312 Z M 236.597656 222.070312 " fill-opacity="1" fill-rule="nonzero"/><path fill="#f77f00" d="M 236.597656 202.214844 L 282.054688 202.214844 C 283.96875 202.214844 285.640625 200.539062 285.640625 198.625 C 285.640625 196.710938 283.96875 195.035156 282.054688 195.035156 L 236.597656 195.035156 C 234.683594 195.035156 233.007812 196.710938 233.007812 198.625 C 233.007812 200.539062 234.683594 202.214844 236.597656 202.214844 Z M 236.597656 202.214844 " fill-opacity="1" fill-rule="nonzero"/><g clip-path="url(#444c39816a)"><path fill="#003049" d="M 225.332031 258.105469 C 225.332031 257.558594 225.441406 257.015625 225.332031 256.359375 L 10.324219 256.359375 C 10.214844 256.90625 10.324219 257.449219 10.324219 258.105469 C 10.324219 263.988281 15.121094 268.785156 21.003906 268.785156 L 214.542969 268.785156 C 220.429688 268.785156 225.332031 263.988281 225.332031 258.105469 Z M 225.332031 258.105469 " fill-opacity="1" fill-rule="nonzero"/></g><g clip-path="url(#6390292f07)"><path fill="#003049" d="M 120.714844 155.886719 L 124.640625 148.039062 L 125.511719 148.039062 C 127.910156 148.039062 129.871094 146.078125 129.871094 143.679688 C 129.871094 141.285156 127.910156 139.320312 125.511719 139.320312 L 110.035156 139.320312 C 107.640625 139.320312 105.679688 141.285156 105.679688 143.679688 C 105.679688 146.078125 107.640625 148.039062 110.035156 148.039062 L 110.910156 148.039062 L 114.832031 155.886719 C 64.160156 157.410156 23.511719 198.929688 23.511719 250.039062 L 212.144531 250.039062 C 212.144531 198.929688 171.390625 157.410156 120.714844 155.886719 Z M 41.273438 241.867188 L 32.121094 241.867188 C 36.042969 200.675781 69.0625 168.308594 110.253906 164.605469 C 73.640625 173.214844 45.742188 203.945312 41.273438 241.867188 Z M 41.273438 241.867188 " fill-opacity="1" fill-rule="nonzero"/></g></svg>