<svg xmlns="http://www.w3.org/2000/svg" xmlns:xlink="http://www.w3.org/1999/xlink" width="500" zoomAndPan="magnify" viewBox="0 0 375 374.999991" height="500" preserveAspectRatio="xMidYMid meet" version="1.0"><defs><clipPath id="710c50e733"><path d="M 58.390625 164 L 316.390625 164 L 316.390625 179.664062 L 58.390625 179.664062 Z M 58.390625 164 " clip-rule="nonzero"/></clipPath><clipPath id="102ace6612"><path d="M 74 24.414062 L 301 24.414062 L 301 158 L 74 158 Z M 74 24.414062 " clip-rule="nonzero"/></clipPath><clipPath id="52a528b258"><path d="M 58.390625 193.503906 L 316.390625 193.503906 L 316.390625 350.253906 L 58.390625 350.253906 Z M 58.390625 193.503906 " clip-rule="nonzero"/></clipPath></defs><rect x="-37.5" width="450" fill="#ffffff" y="-37.499999" height="449.999989" fill-opacity="1"/><rect x="-37.5" width="450" fill="#ffffff" y="-37.499999" height="449.999989" fill-opacity="1"/><g clip-path="url(#710c50e733)"><path fill="#f77f00" d="M 316.414062 166.855469 C 316.414062 166.203125 316.546875 165.550781 316.414062 164.765625 L 58.578125 164.765625 C 58.449219 165.417969 58.578125 166.070312 58.578125 166.855469 C 58.578125 173.914062 64.328125 179.664062 71.386719 179.664062 L 303.476562 179.664062 C 310.535156 179.664062 316.414062 173.914062 316.414062 166.855469 Z M 316.414062 166.855469 " fill-opacity="1" fill-rule="nonzero"/></g><g clip-path="url(#102ace6612)"><path fill="#f77f00" d="M 190.960938 44.277344 L 195.664062 34.867188 L 196.710938 34.867188 C 199.585938 34.867188 201.9375 32.515625 201.9375 29.640625 C 201.9375 26.765625 199.585938 24.414062 196.710938 24.414062 L 178.152344 24.414062 C 175.277344 24.414062 172.925781 26.765625 172.925781 29.640625 C 172.925781 32.515625 175.277344 34.867188 178.152344 34.867188 L 179.199219 34.867188 L 183.902344 44.277344 C 123.136719 46.105469 74.390625 95.894531 74.390625 157.1875 L 300.601562 157.1875 C 300.601562 95.894531 251.726562 46.105469 190.960938 44.277344 Z M 95.691406 147.382812 L 84.714844 147.382812 C 89.421875 97.988281 129.015625 59.175781 178.414062 54.730469 C 134.503906 65.054688 101.050781 101.90625 95.691406 147.382812 Z M 95.691406 147.382812 " fill-opacity="1" fill-rule="nonzero"/></g><g clip-path="url(#52a528b258)"><path fill="#003049" d="M 156.21875 236.429688 C 156.28125 236.367188 156.34375 236.335938 156.40625 236.273438 C 156.46875 236.242188 156.3125 236.367188 156.21875 236.429688 Z M 156.21875 236.429688 C 156.21875 236.429688 156.1875 236.460938 156.1875 236.460938 C 156.15625 236.460938 156.1875 236.429688 156.21875 236.429688 Z M 191.421875 214.605469 C 191.988281 213.664062 190.984375 212.21875 190.574219 212 C 189.160156 211.246094 186.148438 211.9375 185.234375 212.0625 C 185.109375 212.09375 184.984375 212.09375 184.859375 212.125 C 183.351562 212.46875 181.96875 213.222656 180.871094 214.289062 L 176.503906 218.96875 L 166.046875 229.398438 C 164.539062 230.902344 162.75 232.066406 160.773438 232.726562 C 159.765625 233.070312 158.667969 233.542969 157.570312 234.234375 C 157.097656 234.515625 156.75 234.765625 156.4375 234.988281 C 157.191406 237.34375 159.359375 241.394531 167.933594 240.355469 C 180.210938 238.882812 196.511719 230.808594 196.511719 230.808594 L 222.074219 217.273438 L 225.496094 215.671875 C 225.652344 215.140625 225.78125 214.449219 225.558594 213.726562 C 225.558594 213.726562 225.371094 213.066406 224.867188 212.53125 C 223.769531 211.339844 220.03125 211.371094 215.417969 212.59375 C 212.371094 213.757812 210.015625 214.886719 208.601562 215.578125 C 202.039062 218.84375 186.179688 227.828125 181.96875 230.054688 C 181.277344 230.433594 179.867188 230.902344 179.175781 230.777344 C 178.734375 230.683594 179.082031 229.835938 179.082031 229.835938 C 179.082031 229.835938 190.859375 215.546875 191.421875 214.605469 Z M 249.710938 216.300781 C 248.640625 215.546875 247.386719 215.109375 246.097656 215.011719 L 243.835938 214.824219 C 243.019531 214.761719 242.234375 214.730469 241.417969 214.761719 L 237.996094 214.886719 C 234.886719 214.980469 231.746094 215.925781 228.921875 217.242188 L 224.773438 219.191406 L 221.351562 220.792969 L 195.789062 234.359375 C 195.789062 234.359375 179.488281 242.429688 167.210938 243.90625 C 158.636719 244.941406 156.0625 241.203125 155.308594 238.847656 C 154.992188 237.84375 154.992188 237.121094 154.992188 237.058594 C 154.992188 237.058594 154.429688 235.960938 156.878906 230.246094 C 158.070312 227.449219 158.039062 223.460938 157.503906 220.824219 C 157.222656 219.410156 156.5625 218.121094 155.652344 217.054688 C 154.742188 216.019531 153.515625 215.203125 152.167969 214.730469 C 150.660156 214.226562 149.058594 214.164062 147.519531 214.511719 L 147.488281 214.511719 C 145.195312 215.042969 143.277344 216.613281 142.367188 218.78125 C 141.992188 219.691406 141.675781 220.667969 141.363281 221.578125 L 141.363281 221.609375 C 140.859375 223.210938 140.328125 225.628906 140.171875 227.324219 C 139.980469 229.300781 139.824219 231.5 139.824219 233.070312 C 139.792969 235.207031 138.472656 238.0625 137.375 240.042969 C 136.589844 241.488281 135.398438 242.648438 133.984375 243.464844 C 132.066406 244.566406 129.773438 246.167969 127.671875 248.554688 C 124.46875 252.132812 122.992188 255.777344 121.203125 260.769531 C 119.035156 266.832031 119.757812 268.652344 117.402344 272.765625 C 116.523438 274.304688 115.421875 275.8125 109.363281 280.964844 C 111.371094 282.03125 114.417969 284.574219 118.71875 289.128906 C 123.242188 293.902344 128.078125 299.742188 130.78125 303.730469 C 130.90625 303.890625 131 304.078125 131.125 304.234375 C 131.691406 303.761719 132.257812 303.261719 132.820312 302.757812 C 139.542969 296.792969 140.328125 295.347656 147.234375 289.253906 C 156.1875 281.339844 163.976562 275.78125 166.140625 274.242188 C 173.082031 269.34375 175.1875 268.464844 183.476562 262.371094 C 187.277344 259.578125 190.199219 257.285156 193.148438 254.960938 C 203.765625 246.605469 203.105469 246.511719 208.757812 242.304688 C 209.511719 241.738281 219.4375 234.359375 230.019531 229.238281 C 233.160156 227.730469 235.390625 226.632812 238.59375 225.660156 C 243.082031 224.308594 243.492188 224.058594 244.246094 223.964844 C 245.125 223.871094 248.171875 223.398438 249.332031 222.613281 C 249.585938 222.457031 251.5 221.105469 251.4375 219.128906 C 251.40625 217.902344 250.589844 216.960938 249.710938 216.300781 Z M 127.734375 305.332031 C 125.03125 301.34375 120.195312 295.503906 115.675781 290.730469 C 111.371094 286.207031 108.324219 283.664062 106.316406 282.566406 C 105.90625 282.34375 105.53125 282.15625 105.183594 282.0625 C 104.429688 281.8125 103.867188 281.875 103.519531 282.21875 L 99.910156 285.644531 L 98.683594 286.804688 L 97.867188 285.957031 L 63.605469 317.550781 L 96.359375 350.558594 L 129.085938 318.835938 L 125 314.503906 L 126.664062 312.933594 L 129.839844 309.917969 C 130.246094 309.511719 129.523438 307.972656 128.109375 305.835938 C 127.984375 305.648438 127.859375 305.492188 127.734375 305.332031 Z M 314.90625 193.53125 L 60.085938 193.53125 C 59.144531 193.53125 58.390625 194.285156 58.390625 195.226562 L 58.390625 198.496094 C 58.390625 199.4375 59.144531 200.191406 60.085938 200.191406 L 70.828125 200.191406 L 82.324219 207.757812 C 83.203125 208.355469 84.238281 208.667969 85.273438 208.667969 L 289.65625 208.667969 C 290.695312 208.667969 291.730469 208.355469 292.609375 207.757812 L 304.105469 200.191406 L 314.84375 200.191406 C 315.785156 200.191406 316.539062 199.4375 316.539062 198.496094 L 316.539062 195.226562 C 316.601562 194.285156 315.847656 193.53125 314.90625 193.53125 Z M 314.90625 193.53125 " fill-opacity="1" fill-rule="nonzero"/></g></svg>