<svg xmlns="http://www.w3.org/2000/svg" xmlns:xlink="http://www.w3.org/1999/xlink" width="500" zoomAndPan="magnify" viewBox="0 0 375 374.999991" height="500" preserveAspectRatio="xMidYMid meet" version="1.0"><defs><clipPath id="cd33b62327"><path d="M 9 238 L 142 238 L 142 370.613281 L 9 370.613281 Z M 9 238 " clip-rule="nonzero"/></clipPath><clipPath id="b6e491fd3f"><path d="M 75.65625 34.484375 L 343.804688 34.484375 L 343.804688 302.636719 L 75.65625 302.636719 Z M 75.65625 34.484375 " clip-rule="nonzero"/></clipPath><clipPath id="c05b662539"><path d="M 209.730469 34.484375 C 135.683594 34.484375 75.65625 94.511719 75.65625 168.558594 C 75.65625 242.609375 135.683594 302.636719 209.730469 302.636719 C 283.777344 302.636719 343.804688 242.609375 343.804688 168.558594 C 343.804688 94.511719 283.777344 34.484375 209.730469 34.484375 Z M 209.730469 34.484375 " clip-rule="nonzero"/></clipPath><clipPath id="99d0bbebb4"><path d="M 175 183 L 208 183 L 208 239 L 175 239 Z M 175 183 " clip-rule="nonzero"/></clipPath><clipPath id="419546f5d3"><path d="M 162.03125 191.589844 L 203.90625 169.8125 L 279.429688 315.039062 L 237.554688 336.816406 Z M 162.03125 191.589844 " clip-rule="nonzero"/></clipPath><clipPath id="a582d9b682"><path d="M 162.03125 191.589844 L 203.90625 169.8125 L 279.429688 315.039062 L 237.554688 336.816406 Z M 162.03125 191.589844 " clip-rule="nonzero"/></clipPath><clipPath id="1b7049699f"><path d="M 187 177 L 220 177 L 220 233 L 187 233 Z M 187 177 " clip-rule="nonzero"/></clipPath><clipPath id="a6ff030465"><path d="M 162.03125 191.589844 L 203.90625 169.8125 L 279.429688 315.039062 L 237.554688 336.816406 Z M 162.03125 191.589844 " clip-rule="nonzero"/></clipPath><clipPath id="b8d5d5f655"><path d="M 162.03125 191.589844 L 203.90625 169.8125 L 279.429688 315.039062 L 237.554688 336.816406 Z M 162.03125 191.589844 " clip-rule="nonzero"/></clipPath><clipPath id="c7fa305b87"><path d="M 163 170 L 264 170 L 264 327 L 163 327 Z M 163 170 " clip-rule="nonzero"/></clipPath><clipPath id="be0feda25e"><path d="M 162.03125 191.589844 L 203.90625 169.8125 L 279.429688 315.039062 L 237.554688 336.816406 Z M 162.03125 191.589844 " clip-rule="nonzero"/></clipPath><clipPath id="9b5aecba56"><path d="M 162.03125 191.589844 L 203.90625 169.8125 L 279.429688 315.039062 L 237.554688 336.816406 Z M 162.03125 191.589844 " clip-rule="nonzero"/></clipPath><clipPath id="b0683d2cee"><path d="M 171 21 L 231 21 L 231 163 L 171 163 Z M 171 21 " clip-rule="nonzero"/></clipPath><clipPath id="533f2ae053"><path d="M 237.824219 156.175781 L 185.023438 168.546875 L 152.03125 27.753906 L 204.832031 15.378906 Z M 237.824219 156.175781 " clip-rule="nonzero"/></clipPath><clipPath id="f4e31a5fec"><path d="M 237.824219 156.175781 L 185.023438 168.546875 L 152.03125 27.753906 L 204.832031 15.378906 Z M 237.824219 156.175781 " clip-rule="nonzero"/></clipPath></defs><path fill="#003049" d="M 209.730469 301.253906 C 212.421875 301.257812 215.109375 301.175781 217.796875 301.011719 C 220.480469 300.847656 223.15625 300.601562 225.828125 300.273438 C 228.496094 299.945312 231.15625 299.535156 233.800781 299.042969 C 236.445312 298.554688 239.070312 297.980469 241.683594 297.328125 C 244.292969 296.675781 246.878906 295.945312 249.445312 295.132812 C 252.007812 294.320312 254.546875 293.429688 257.054688 292.464844 C 259.566406 291.496094 262.042969 290.453125 264.492188 289.335938 C 266.9375 288.214844 269.347656 287.023438 271.71875 285.753906 C 274.09375 284.488281 276.425781 283.148438 278.714844 281.738281 C 281.003906 280.328125 283.25 278.847656 285.449219 277.300781 C 287.648438 275.75 289.800781 274.136719 291.902344 272.457031 C 294.003906 270.777344 296.050781 269.03125 298.042969 267.226562 C 300.035156 265.421875 301.972656 263.554688 303.851562 261.628906 C 305.730469 259.703125 307.550781 257.722656 309.308594 255.6875 C 311.066406 253.652344 312.757812 251.5625 314.386719 249.421875 C 316.015625 247.28125 317.578125 245.09375 319.074219 242.855469 C 320.570312 240.621094 321.992188 238.339844 323.347656 236.015625 C 324.703125 233.691406 325.984375 231.328125 327.195312 228.925781 C 328.40625 226.523438 329.539062 224.085938 330.601562 221.613281 C 331.660156 219.140625 332.644531 216.636719 333.550781 214.105469 C 334.457031 211.574219 335.285156 209.015625 336.035156 206.429688 C 336.785156 203.847656 337.453125 201.242188 338.042969 198.617188 C 338.632812 195.992188 339.140625 193.351562 339.570312 190.699219 C 339.996094 188.042969 340.34375 185.375 340.605469 182.699219 C 340.871094 180.019531 341.050781 177.335938 341.148438 174.648438 C 341.25 171.960938 341.265625 169.273438 341.199219 166.582031 C 341.132812 163.894531 340.984375 161.210938 340.753906 158.527344 C 340.523438 155.847656 340.210938 153.179688 339.816406 150.515625 C 339.421875 147.855469 338.945312 145.210938 338.386719 142.578125 C 337.828125 139.945312 337.191406 137.335938 336.476562 134.742188 C 335.757812 132.148438 334.960938 129.582031 334.085938 127.039062 C 333.210938 124.492188 332.257812 121.980469 331.226562 119.492188 C 330.199219 117.007812 329.09375 114.558594 327.914062 112.140625 C 326.730469 109.722656 325.480469 107.34375 324.152344 105.003906 C 322.824219 102.664062 321.429688 100.367188 319.960938 98.109375 C 318.496094 95.855469 316.960938 93.648438 315.355469 91.488281 C 313.753906 89.328125 312.085938 87.21875 310.351562 85.160156 C 308.621094 83.101562 306.828125 81.101562 304.972656 79.152344 C 303.117188 77.203125 301.203125 75.316406 299.230469 73.484375 C 297.261719 71.652344 295.234375 69.886719 293.15625 68.179688 C 291.074219 66.472656 288.945312 64.832031 286.761719 63.257812 C 284.582031 61.683594 282.355469 60.175781 280.082031 58.738281 C 277.808594 57.300781 275.496094 55.929688 273.136719 54.636719 C 270.78125 53.339844 268.386719 52.117188 265.953125 50.964844 C 263.519531 49.816406 261.054688 48.742188 258.558594 47.746094 C 256.058594 46.746094 253.53125 45.828125 250.976562 44.984375 C 248.421875 44.140625 245.84375 43.378906 243.242188 42.695312 C 240.640625 42.007812 238.023438 41.40625 235.382812 40.882812 C 232.746094 40.355469 230.09375 39.914062 227.425781 39.554688 C 224.761719 39.191406 222.085938 38.914062 219.402344 38.71875 C 216.722656 38.519531 214.035156 38.40625 211.34375 38.375 C 208.65625 38.34375 205.964844 38.394531 203.28125 38.527344 C 200.59375 38.660156 197.914062 38.875 195.238281 39.175781 C 192.566406 39.472656 189.902344 39.851562 187.253906 40.3125 C 184.601562 40.773438 181.96875 41.316406 179.351562 41.941406 C 176.734375 42.5625 174.140625 43.265625 171.566406 44.046875 C 168.992188 44.832031 166.445312 45.691406 163.925781 46.628906 C 161.402344 47.570312 158.914062 48.582031 156.453125 49.675781 C 153.996094 50.765625 151.574219 51.933594 149.1875 53.171875 C 146.800781 54.414062 144.453125 55.726562 142.144531 57.109375 C 139.839844 58.496094 137.578125 59.949219 135.359375 61.472656 C 133.144531 62.996094 130.972656 64.585938 128.855469 66.242188 C 126.734375 67.898438 124.667969 69.617188 122.65625 71.402344 C 120.640625 73.1875 118.683594 75.027344 116.78125 76.933594 C 114.5 79.214844 112.300781 81.574219 110.191406 84.019531 C 108.082031 86.460938 106.066406 88.980469 104.140625 91.570312 C 102.21875 94.164062 100.390625 96.820312 98.664062 99.546875 C 96.933594 102.273438 95.308594 105.058594 93.785156 107.90625 C 92.265625 110.75 90.847656 113.648438 89.539062 116.601562 C 88.230469 119.550781 87.03125 122.546875 85.941406 125.585938 C 84.855469 128.621094 83.878906 131.699219 83.015625 134.808594 C 82.15625 137.917969 81.410156 141.058594 80.777344 144.222656 C 80.148438 147.386719 79.636719 150.574219 79.238281 153.777344 C 78.84375 156.980469 78.566406 160.195312 78.40625 163.417969 C 78.25 166.640625 78.207031 169.867188 78.289062 173.09375 C 78.367188 176.320312 78.5625 179.539062 78.878906 182.753906 C 79.195312 185.964844 79.628906 189.160156 80.183594 192.339844 C 80.734375 195.519531 81.402344 198.675781 82.1875 201.808594 C 82.972656 204.9375 83.871094 208.035156 84.882812 211.101562 C 85.894531 214.167969 87.019531 217.191406 88.253906 220.171875 C 89.492188 223.152344 90.835938 226.085938 92.285156 228.96875 C 93.738281 231.851562 95.292969 234.675781 96.953125 237.445312 C 98.613281 240.214844 100.375 242.917969 102.230469 245.554688 C 104.089844 248.195312 106.046875 250.761719 108.09375 253.253906 C 110.140625 255.75 112.28125 258.164062 114.507812 260.503906 C 116.734375 262.839844 119.042969 265.089844 121.433594 267.257812 C 123.828125 269.425781 126.296875 271.5 128.84375 273.484375 C 131.386719 275.46875 134.003906 277.359375 136.6875 279.148438 C 139.371094 280.941406 142.117188 282.632812 144.929688 284.222656 C 147.738281 285.8125 150.601562 287.296875 153.519531 288.675781 C 156.4375 290.050781 159.40625 291.320312 162.417969 292.480469 C 165.429688 293.640625 168.480469 294.6875 171.570312 295.625 C 174.660156 296.558594 177.777344 297.378906 180.929688 298.082031 C 184.078125 298.789062 187.25 299.375 190.441406 299.847656 C 193.636719 300.320312 196.84375 300.671875 200.0625 300.90625 C 203.28125 301.140625 206.503906 301.257812 209.730469 301.253906 Z M 209.730469 67.328125 C 211.691406 67.324219 213.648438 67.375 215.605469 67.484375 C 217.5625 67.589844 219.515625 67.753906 221.460938 67.972656 C 223.40625 68.195312 225.347656 68.46875 227.277344 68.800781 C 229.210938 69.128906 231.128906 69.515625 233.039062 69.957031 C 234.949219 70.398438 236.84375 70.894531 238.722656 71.441406 C 240.605469 71.992188 242.46875 72.59375 244.3125 73.25 C 246.160156 73.90625 247.988281 74.617188 249.792969 75.378906 C 251.597656 76.136719 253.378906 76.949219 255.140625 77.8125 C 256.898438 78.675781 258.632812 79.589844 260.335938 80.550781 C 262.042969 81.515625 263.722656 82.523438 265.371094 83.582031 C 267.019531 84.640625 268.636719 85.746094 270.222656 86.898438 C 271.808594 88.050781 273.359375 89.246094 274.875 90.484375 C 276.394531 91.726562 277.875 93.007812 279.316406 94.332031 C 280.761719 95.660156 282.164062 97.023438 283.53125 98.429688 C 284.894531 99.835938 286.21875 101.277344 287.5 102.761719 C 288.78125 104.242188 290.023438 105.757812 291.21875 107.3125 C 292.414062 108.863281 293.5625 110.449219 294.667969 112.066406 C 295.773438 113.683594 296.828125 115.335938 297.839844 117.011719 C 298.851562 118.691406 299.8125 120.398438 300.722656 122.132812 C 301.636719 123.867188 302.496094 125.625 303.308594 127.410156 C 304.121094 129.191406 304.878906 130.996094 305.589844 132.824219 C 306.296875 134.652344 306.953125 136.496094 307.554688 138.363281 C 308.15625 140.226562 308.703125 142.105469 309.199219 144.003906 C 309.691406 145.898438 310.132812 147.808594 310.519531 149.726562 C 310.902344 151.648438 311.234375 153.582031 311.507812 155.519531 C 311.78125 157.460938 312 159.40625 312.164062 161.359375 C 312.324219 163.3125 312.433594 165.269531 312.484375 167.226562 C 312.535156 169.183594 312.527344 171.144531 312.46875 173.101562 C 312.40625 175.058594 312.289062 177.015625 312.113281 178.96875 C 311.941406 180.917969 311.710938 182.863281 311.425781 184.800781 C 311.140625 186.742188 310.800781 188.671875 310.40625 190.589844 C 310.011719 192.507812 309.558594 194.414062 309.054688 196.308594 C 308.550781 198.199219 307.992188 200.078125 307.378906 201.9375 C 306.765625 203.800781 306.101562 205.640625 305.382812 207.464844 C 304.664062 209.289062 303.894531 211.089844 303.074219 212.867188 C 302.253906 214.648438 301.382812 216.402344 300.460938 218.128906 C 299.539062 219.859375 298.566406 221.5625 297.546875 223.234375 C 296.527344 224.90625 295.460938 226.550781 294.347656 228.164062 C 293.234375 229.773438 292.078125 231.355469 290.871094 232.898438 C 289.667969 234.445312 288.421875 235.957031 287.128906 237.429688 C 285.839844 238.90625 284.507812 240.339844 283.136719 241.738281 C 281.761719 243.136719 280.351562 244.496094 278.898438 245.8125 C 277.449219 247.128906 275.960938 248.402344 274.4375 249.632812 C 272.914062 250.867188 271.355469 252.054688 269.765625 253.195312 C 268.171875 254.339844 266.550781 255.433594 264.894531 256.484375 C 263.242188 257.535156 261.558594 258.535156 259.847656 259.488281 C 258.132812 260.441406 256.394531 261.34375 254.632812 262.199219 C 252.867188 263.050781 251.082031 263.855469 249.273438 264.605469 C 247.460938 265.355469 245.632812 266.054688 243.78125 266.699219 C 241.933594 267.347656 240.066406 267.941406 238.183594 268.480469 C 236.296875 269.019531 234.402344 269.503906 232.488281 269.933594 C 230.578125 270.363281 228.65625 270.738281 226.722656 271.058594 C 224.789062 271.378906 222.847656 271.644531 220.902344 271.851562 C 218.953125 272.0625 217 272.214844 215.042969 272.3125 C 213.085938 272.410156 211.128906 272.449219 209.167969 272.433594 C 207.210938 272.417969 205.253906 272.347656 203.296875 272.222656 C 201.339844 272.09375 199.390625 271.910156 197.445312 271.671875 C 195.503906 271.433594 193.566406 271.136719 191.636719 270.789062 C 189.710938 270.4375 187.792969 270.03125 185.890625 269.574219 C 183.984375 269.113281 182.09375 268.597656 180.21875 268.03125 C 178.34375 267.460938 176.488281 266.839844 174.648438 266.164062 C 172.808594 265.492188 170.988281 264.765625 169.191406 263.984375 C 167.394531 263.207031 165.617188 262.375 163.867188 261.496094 C 162.117188 260.613281 160.394531 259.683594 158.699219 258.707031 C 157 257.726562 155.332031 256.699219 153.695312 255.625 C 152.058594 254.550781 150.449219 253.429688 148.875 252.261719 C 147.304688 251.09375 145.765625 249.882812 144.257812 248.628906 C 142.753906 247.371094 141.289062 246.074219 139.855469 244.734375 C 138.425781 243.394531 137.035156 242.015625 135.6875 240.597656 C 134.335938 239.179688 133.023438 237.722656 131.757812 236.226562 C 130.488281 234.734375 129.265625 233.203125 128.085938 231.640625 C 126.90625 230.074219 125.773438 228.480469 124.683594 226.847656 C 123.59375 225.21875 122.554688 223.5625 121.5625 221.871094 C 120.566406 220.183594 119.625 218.46875 118.730469 216.722656 C 117.835938 214.980469 116.988281 213.214844 116.195312 211.421875 C 115.402344 209.628906 114.660156 207.816406 113.972656 205.984375 C 113.28125 204.148438 112.644531 202.296875 112.0625 200.425781 C 111.476562 198.558594 110.949219 196.671875 110.472656 194.769531 C 109.996094 192.871094 109.578125 190.957031 109.210938 189.03125 C 108.84375 187.105469 108.535156 185.171875 108.277344 183.230469 C 108.023438 181.289062 107.824219 179.339844 107.679688 177.386719 C 107.539062 175.429688 107.449219 173.472656 107.417969 171.515625 C 107.386719 169.554688 107.414062 167.597656 107.496094 165.640625 C 107.574219 163.683594 107.710938 161.726562 107.90625 159.777344 C 108.097656 157.828125 108.347656 155.886719 108.652344 153.949219 C 108.957031 152.015625 109.316406 150.089844 109.730469 148.175781 C 110.144531 146.257812 110.613281 144.359375 111.136719 142.46875 C 111.664062 140.582031 112.238281 138.710938 112.871094 136.855469 C 113.5 135 114.183594 133.164062 114.921875 131.347656 C 115.65625 129.53125 116.445312 127.738281 117.285156 125.96875 C 118.125 124.199219 119.011719 122.453125 119.953125 120.734375 C 120.890625 119.015625 121.878906 117.324219 122.914062 115.660156 C 123.949219 113.996094 125.03125 112.363281 126.160156 110.761719 C 127.292969 109.160156 128.464844 107.59375 129.683594 106.0625 C 130.90625 104.527344 132.167969 103.03125 133.472656 101.566406 C 134.777344 100.105469 136.125 98.683594 137.511719 97.300781 C 139.875 94.933594 142.351562 92.6875 144.9375 90.5625 C 147.523438 88.441406 150.207031 86.449219 152.988281 84.589844 C 155.769531 82.730469 158.632812 81.007812 161.582031 79.429688 C 164.53125 77.851562 167.554688 76.421875 170.644531 75.136719 C 173.734375 73.855469 176.878906 72.726562 180.082031 71.753906 C 183.28125 70.78125 186.523438 69.964844 189.804688 69.308594 C 193.085938 68.652344 196.390625 68.160156 199.71875 67.828125 C 203.046875 67.5 206.386719 67.332031 209.730469 67.328125 Z M 209.730469 67.328125 " fill-opacity="1" fill-rule="nonzero"/><g clip-path="url(#cd33b62327)"><path fill="#003049" d="M 23.398438 370.660156 C 25.3125 370.652344 27.148438 370.277344 28.914062 369.539062 C 30.679688 368.804688 32.234375 367.753906 33.582031 366.398438 L 137.222656 262.832031 C 137.890625 262.160156 138.492188 261.429688 139.019531 260.640625 C 139.546875 259.855469 139.992188 259.019531 140.355469 258.144531 C 140.71875 257.265625 140.992188 256.363281 141.175781 255.433594 C 141.363281 254.503906 141.453125 253.5625 141.453125 252.613281 C 141.453125 251.664062 141.363281 250.722656 141.175781 249.792969 C 140.992188 248.863281 140.71875 247.960938 140.355469 247.082031 C 139.992188 246.207031 139.546875 245.371094 139.019531 244.582031 C 138.492188 243.792969 137.890625 243.066406 137.222656 242.394531 C 136.550781 241.722656 135.820312 241.125 135.03125 240.597656 C 134.242188 240.070312 133.410156 239.625 132.53125 239.261719 C 131.65625 238.898438 130.753906 238.625 129.820312 238.4375 C 128.890625 238.253906 127.949219 238.160156 127 238.160156 C 126.054688 238.160156 125.113281 238.253906 124.183594 238.4375 C 123.25 238.625 122.347656 238.898438 121.472656 239.261719 C 120.59375 239.625 119.761719 240.070312 118.972656 240.597656 C 118.183594 241.125 117.453125 241.722656 116.78125 242.394531 L 13.214844 346.03125 C 12.714844 346.535156 12.257812 347.070312 11.835938 347.640625 C 11.414062 348.210938 11.039062 348.808594 10.707031 349.433594 C 10.375 350.058594 10.089844 350.703125 9.851562 351.371094 C 9.613281 352.039062 9.425781 352.71875 9.289062 353.414062 C 9.152344 354.109375 9.066406 354.808594 9.03125 355.519531 C 8.996094 356.226562 9.015625 356.929688 9.085938 357.636719 C 9.15625 358.339844 9.277344 359.035156 9.449219 359.722656 C 9.621094 360.410156 9.839844 361.082031 10.113281 361.734375 C 10.382812 362.390625 10.699219 363.019531 11.0625 363.628906 C 11.425781 364.238281 11.832031 364.8125 12.28125 365.363281 C 12.730469 365.910156 13.214844 366.421875 13.738281 366.898438 C 14.261719 367.375 14.816406 367.8125 15.40625 368.207031 C 15.992188 368.601562 16.605469 368.953125 17.246094 369.257812 C 17.886719 369.558594 18.542969 369.816406 19.222656 370.023438 C 19.898438 370.230469 20.585938 370.390625 21.285156 370.496094 C 21.988281 370.601562 22.691406 370.65625 23.398438 370.660156 Z M 23.398438 370.660156 " fill-opacity="1" fill-rule="nonzero"/></g><g clip-path="url(#b6e491fd3f)"><g clip-path="url(#c05b662539)"><path fill="#f77f00" d="M 75.65625 34.484375 L 343.804688 34.484375 L 343.804688 302.636719 L 75.65625 302.636719 Z M 75.65625 34.484375 " fill-opacity="1" fill-rule="nonzero"/></g></g><g clip-path="url(#99d0bbebb4)"><g clip-path="url(#419546f5d3)"><g clip-path="url(#a582d9b682)"><path fill="#ffffff" d="M 205.363281 238.109375 C 203.699219 238.976562 201.648438 238.328125 200.78125 236.664062 L 175.714844 188.457031 C 174.847656 186.792969 175.496094 184.742188 177.160156 183.878906 C 178.820312 183.011719 180.875 183.660156 181.738281 185.324219 L 206.808594 233.53125 C 207.671875 235.195312 207.027344 237.246094 205.363281 238.109375 Z M 205.363281 238.109375 " fill-opacity="1" fill-rule="nonzero"/></g></g></g><g clip-path="url(#1b7049699f)"><g clip-path="url(#a6ff030465)"><g clip-path="url(#b8d5d5f655)"><path fill="#ffffff" d="M 217.414062 231.84375 C 215.75 232.707031 213.699219 232.058594 212.835938 230.398438 L 187.765625 182.191406 C 186.898438 180.527344 187.546875 178.476562 189.210938 177.609375 C 190.875 176.746094 192.925781 177.394531 193.789062 179.054688 L 218.859375 227.261719 C 219.726562 228.925781 219.078125 230.976562 217.414062 231.84375 Z M 217.414062 231.84375 " fill-opacity="1" fill-rule="nonzero"/></g></g></g><g clip-path="url(#c7fa305b87)"><g clip-path="url(#be0feda25e)"><g clip-path="url(#9b5aecba56)"><path fill="#ffffff" d="M 258.394531 325.367188 C 253.410156 327.957031 247.246094 326.011719 244.65625 321.027344 L 219.53125 272.71875 C 215.777344 265.5 210.019531 259.605469 202.894531 255.679688 C 195.996094 251.882812 190.421875 246.1875 186.78125 239.183594 L 163.660156 194.726562 C 162.796875 193.0625 163.445312 191.011719 165.105469 190.144531 C 166.769531 189.28125 168.820312 189.929688 169.6875 191.589844 L 192.808594 236.050781 C 195.824219 241.851562 200.445312 246.585938 206.160156 249.730469 C 214.480469 254.300781 221.183594 261.171875 225.558594 269.582031 L 250.679688 317.894531 C 251.542969 319.550781 253.605469 320.203125 255.261719 319.339844 C 256.917969 318.476562 257.570312 316.417969 256.707031 314.757812 L 231.585938 266.449219 C 227.210938 258.039062 225.433594 248.601562 226.460938 239.171875 C 227.171875 232.679688 225.957031 226.183594 222.9375 220.382812 L 199.816406 175.921875 C 198.953125 174.257812 199.597656 172.207031 201.261719 171.34375 C 202.925781 170.476562 204.976562 171.125 205.84375 172.789062 L 228.964844 217.246094 C 232.601562 224.242188 234.070312 232.078125 233.222656 239.90625 C 232.339844 248 233.855469 256.097656 237.609375 263.316406 L 262.734375 311.625 C 265.324219 316.609375 263.378906 322.773438 258.394531 325.367188 Z M 258.394531 325.367188 " fill-opacity="1" fill-rule="nonzero"/></g></g></g><g clip-path="url(#b0683d2cee)"><g clip-path="url(#533f2ae053)"><g clip-path="url(#f4e31a5fec)"><path fill="#ffffff" d="M 211.429688 162.355469 C 226.71875 158.773438 233.777344 138.90625 228.203125 115.117188 C 225.253906 102.53125 219.9375 94.242188 212.414062 90.46875 C 206.261719 87.386719 201.683594 81.15625 199.855469 73.355469 L 189.304688 28.335938 C 188.171875 23.484375 183.296875 20.464844 178.449219 21.601562 C 173.597656 22.738281 170.574219 27.609375 171.710938 32.457031 L 182.261719 77.476562 C 184.089844 85.277344 182.757812 92.902344 178.613281 98.394531 C 173.546875 105.113281 172.46875 114.898438 175.417969 127.484375 C 180.992188 151.273438 196.140625 165.9375 211.429688 162.355469 Z M 211.429688 162.355469 " fill-opacity="1" fill-rule="nonzero"/></g></g></g></svg>