<svg xmlns="http://www.w3.org/2000/svg" xmlns:xlink="http://www.w3.org/1999/xlink" width="500" zoomAndPan="magnify" viewBox="0 0 375 374.999991" height="500" preserveAspectRatio="xMidYMid meet" version="1.0"><defs><clipPath id="0e9c236f12"><path d="M 16.671875 184 L 151 184 L 151 199 L 16.671875 199 Z M 16.671875 184 " clip-rule="nonzero"/></clipPath></defs><path fill="#003049" d="M 347.5 310.417969 C 340.488281 314.59375 332.644531 312.214844 327.53125 304.328125 C 321.082031 294.445312 288.511719 244.222656 288.511719 244.222656 C 288.308594 243.90625 287.949219 243.707031 287.570312 243.707031 C 287.476562 243.707031 287.359375 243.722656 287.257812 243.75 C 286.78125 243.882812 286.449219 244.328125 286.449219 244.828125 L 286.195312 294.402344 C 286.175781 299.992188 281.597656 304.527344 276 304.527344 L 196.1875 304.527344 C 190.597656 304.527344 186.019531 299.992188 185.992188 294.402344 L 185.675781 231.773438 C 185.675781 231.324219 185.414062 230.902344 184.984375 230.746094 C 184.578125 230.5625 184.089844 230.675781 183.773438 230.992188 C 183.542969 231.210938 161.484375 253.65625 150.554688 264.5 C 146.191406 268.792969 141.359375 270.949219 136.558594 270.746094 C 131.765625 270.546875 127.167969 267.964844 123.238281 263.316406 C 113.148438 251.382812 103.15625 239.390625 93.160156 227.394531 L 83.113281 215.382812 C 82.492188 214.636719 81.859375 213.875 81.210938 213.136719 C 80.332031 212.144531 79.4375 211.109375 78.605469 210.054688 L 115.4375 210.054688 C 119.886719 213.628906 124.421875 217.332031 129.144531 221.171875 L 138.101562 228.445312 C 138.550781 228.816406 139.226562 228.761719 139.628906 228.359375 C 145.140625 222.585938 150.570312 216.863281 155.984375 211.179688 C 164.765625 201.949219 173.460938 192.804688 182.175781 183.679688 C 187 178.636719 192.554688 175.800781 199.136719 175.039062 C 200.59375 174.878906 201.898438 174.808594 203.15625 174.808594 C 203.601562 174.808594 208.296875 174.808594 215.0625 174.835938 C 215.394531 175.082031 215.753906 175.355469 216.097656 175.574219 C 224.765625 181.664062 234.875 183.734375 244.035156 181.277344 C 248.796875 180.046875 253.449219 177.847656 257.46875 174.925781 C 268.988281 174.96875 271.847656 175.011719 272.199219 175.039062 C 281.570312 176.046875 288.582031 180.785156 293.589844 189.523438 C 305.242188 209.941406 316.949219 230.34375 328.625 250.761719 C 336.128906 263.808594 343.613281 276.882812 351.089844 289.953125 C 355.808594 298.195312 354.394531 306.238281 347.5 310.417969 Z M 353.046875 288.832031 C 345.5625 275.757812 338.058594 262.703125 330.582031 249.636719 C 318.90625 229.238281 307.199219 208.820312 295.539062 188.429688 C 290.125 179.011719 282.578125 173.914062 272.472656 172.808594 C 272.25 172.765625 271.796875 172.722656 257.109375 172.679688 C 257.109375 172.679688 257.109375 172.679688 257.089844 172.679688 C 256.863281 172.679688 256.617188 172.765625 256.433594 172.90625 C 252.570312 175.757812 248.078125 177.90625 243.472656 179.128906 C 234.933594 181.375 225.527344 179.433594 217.378906 173.738281 C 216.964844 173.441406 216.542969 173.152344 216.140625 172.835938 C 215.9375 172.679688 215.691406 172.589844 215.4375 172.589844 C 208.480469 172.589844 203.601562 172.5625 203.15625 172.5625 C 201.855469 172.5625 200.460938 172.632812 198.890625 172.808594 C 191.851562 173.625 185.703125 176.742188 180.5625 182.136719 C 171.820312 191.253906 163.125 200.394531 154.34375 209.625 C 149.175781 215.066406 143.964844 220.542969 138.707031 226.050781 L 130.554688 219.417969 C 125.730469 215.488281 121.082031 211.714844 116.542969 208.054688 C 116.359375 207.898438 116.085938 207.808594 115.84375 207.808594 L 76.332031 207.808594 C 75.910156 207.808594 75.523438 208.039062 75.347656 208.414062 C 75.148438 208.792969 75.164062 209.25 75.410156 209.582031 C 76.691406 211.355469 78.128906 213.023438 79.5 214.617188 C 80.148438 215.339844 80.78125 216.074219 81.386719 216.8125 L 91.433594 228.832031 C 101.425781 240.828125 111.445312 252.820312 121.5 264.773438 C 125.863281 269.914062 131.03125 272.75 136.460938 272.992188 C 141.902344 273.222656 147.316406 270.863281 152.125 266.097656 C 161.167969 257.113281 177.839844 240.222656 183.457031 234.519531 L 183.746094 294.402344 C 183.789062 301.230469 189.363281 306.773438 196.1875 306.773438 L 276 306.773438 C 282.824219 306.773438 288.398438 301.230469 288.441406 294.402344 L 288.695312 248.601562 C 295.925781 259.761719 320.1875 297.183594 325.644531 305.5625 C 329.503906 311.496094 334.945312 314.679688 340.507812 314.679688 C 343.253906 314.679688 346.015625 313.917969 348.640625 312.328125 C 356.574219 307.539062 358.34375 298.105469 353.046875 288.832031 " fill-opacity="1" fill-rule="nonzero"/><path fill="#003049" d="M 347.5 310.417969 C 340.488281 314.59375 332.644531 312.214844 327.53125 304.328125 C 321.082031 294.445312 288.511719 244.222656 288.511719 244.222656 C 288.308594 243.90625 287.949219 243.707031 287.570312 243.707031 C 287.476562 243.707031 287.359375 243.722656 287.257812 243.75 C 286.78125 243.882812 286.449219 244.328125 286.449219 244.828125 L 286.195312 294.402344 C 286.175781 299.992188 281.597656 304.527344 276 304.527344 L 196.1875 304.527344 C 190.597656 304.527344 186.019531 299.992188 185.992188 294.402344 L 185.675781 231.773438 C 185.675781 231.324219 185.414062 230.902344 184.984375 230.746094 C 184.578125 230.5625 184.089844 230.675781 183.773438 230.992188 C 183.542969 231.210938 161.484375 253.65625 150.554688 264.5 C 146.191406 268.792969 141.359375 270.949219 136.558594 270.746094 C 131.765625 270.546875 127.167969 267.964844 123.238281 263.316406 C 113.148438 251.382812 103.15625 239.390625 93.160156 227.394531 L 83.113281 215.382812 C 82.492188 214.636719 81.859375 213.875 81.210938 213.136719 C 80.332031 212.144531 79.4375 211.109375 78.605469 210.054688 L 115.4375 210.054688 C 119.886719 213.628906 124.421875 217.332031 129.144531 221.171875 L 138.101562 228.445312 C 138.550781 228.816406 139.226562 228.761719 139.628906 228.359375 C 145.140625 222.585938 150.570312 216.863281 155.984375 211.179688 C 164.765625 201.949219 173.460938 192.804688 182.175781 183.679688 C 187 178.636719 192.554688 175.800781 199.136719 175.039062 C 200.59375 174.878906 201.898438 174.808594 203.15625 174.808594 C 203.601562 174.808594 208.296875 174.808594 215.0625 174.835938 C 215.394531 175.082031 215.753906 175.355469 216.097656 175.574219 C 224.765625 181.664062 234.875 183.734375 244.035156 181.277344 C 248.796875 180.046875 253.449219 177.847656 257.46875 174.925781 C 268.988281 174.96875 271.847656 175.011719 272.199219 175.039062 C 281.570312 176.046875 288.582031 180.785156 293.589844 189.523438 C 305.242188 209.941406 316.949219 230.34375 328.625 250.761719 C 336.128906 263.808594 343.613281 276.882812 351.089844 289.953125 C 355.808594 298.195312 354.394531 306.238281 347.5 310.417969 " fill-opacity="1" fill-rule="nonzero"/><g clip-path="url(#0e9c236f12)"><path fill="#003049" d="M 134.574219 196.554688 L 33.363281 196.597656 L 19.527344 186.917969 L 148.308594 186.917969 Z M 150.84375 186.113281 C 150.554688 185.261719 149.761719 184.671875 148.867188 184.671875 L 18.964844 184.671875 C 18.070312 184.671875 17.253906 185.261719 16.992188 186.113281 C 16.71875 186.988281 17.035156 187.910156 17.773438 188.429688 L 32.066406 198.4375 C 32.417969 198.667969 32.828125 198.800781 33.25 198.800781 L 134.574219 198.800781 C 135.003906 198.800781 135.410156 198.667969 135.769531 198.421875 L 150.035156 188.429688 C 150.796875 187.910156 151.113281 186.988281 150.84375 186.113281 " fill-opacity="1" fill-rule="nonzero"/></g><path fill="#f77f00" d="M 148.308594 186.917969 L 134.574219 196.554688 L 33.363281 196.597656 L 19.527344 186.917969 L 148.308594 186.917969 " fill-opacity="1" fill-rule="nonzero"/><path fill="#003049" d="M 39.179688 176.179688 C 39.699219 155.902344 54.210938 138.132812 74.042969 133.660156 C 74.402344 133.570312 74.691406 133.324219 74.832031 132.984375 C 74.960938 132.675781 74.945312 132.289062 74.761719 131.972656 C 73.707031 130.273438 73.148438 128.316406 73.148438 126.339844 C 73.148438 120.410156 77.972656 115.574219 83.902344 115.574219 C 89.851562 115.574219 94.6875 120.410156 94.6875 126.339844 C 94.6875 128.316406 94.125 130.273438 93.0625 131.972656 C 92.886719 132.289062 92.84375 132.675781 93.003906 132.984375 C 93.132812 133.324219 93.421875 133.570312 93.785156 133.660156 C 113.621094 138.132812 128.136719 155.902344 128.652344 176.179688 Z M 95.695312 131.816406 C 96.503906 130.085938 96.933594 128.226562 96.933594 126.339844 C 96.933594 119.15625 91.089844 113.328125 83.902344 113.328125 C 76.734375 113.328125 70.898438 119.15625 70.898438 126.339844 C 70.898438 128.226562 71.320312 130.085938 72.109375 131.816406 C 51.332031 137.167969 36.933594 155.65625 36.933594 177.300781 C 36.933594 177.90625 37.425781 178.425781 38.058594 178.425781 L 129.777344 178.425781 C 130.398438 178.425781 130.898438 177.90625 130.898438 177.300781 C 130.898438 155.65625 116.5 137.167969 95.695312 131.816406 " fill-opacity="1" fill-rule="nonzero"/><path fill="#f77f00" d="M 128.652344 176.179688 L 39.179688 176.179688 C 39.699219 155.902344 54.210938 138.132812 74.042969 133.660156 C 74.402344 133.570312 74.691406 133.324219 74.832031 132.984375 C 74.960938 132.675781 74.945312 132.289062 74.761719 131.972656 C 73.707031 130.273438 73.148438 128.316406 73.148438 126.339844 C 73.148438 120.410156 77.972656 115.574219 83.902344 115.574219 C 89.851562 115.574219 94.6875 120.410156 94.6875 126.339844 C 94.6875 128.316406 94.125 130.273438 93.0625 131.972656 C 92.886719 132.289062 92.84375 132.675781 93.003906 132.984375 C 93.132812 133.324219 93.421875 133.570312 93.785156 133.660156 C 113.621094 138.132812 128.136719 155.902344 128.652344 176.179688 " fill-opacity="1" fill-rule="nonzero"/><path fill="#003049" d="M 278.492188 96.507812 C 277.28125 98.238281 276.085938 99.316406 274.472656 100.105469 C 273.234375 101 272.410156 101.878906 271.890625 102.84375 L 200.679688 102.84375 C 200.171875 101.859375 199.3125 100.976562 197.925781 100.019531 C 196.484375 99.316406 195.265625 98.195312 194.011719 96.421875 C 191.589844 93.480469 190.328125 89.953125 190.398438 86.199219 C 190.441406 82.3125 191.878906 78.425781 194.554688 74.984375 C 198.792969 69.527344 205.875 67.492188 213.492188 69.554688 C 215.261719 70 215.4375 70.046875 215.894531 69.757812 C 216.15625 69.582031 216.316406 69.335938 216.386719 69.019531 C 216.386719 69.019531 216.402344 68.789062 216.429688 68.773438 C 217.824219 59.359375 222.992188 54.824219 227.097656 52.664062 C 228.855469 51.699219 230.757812 51.050781 232.785156 50.691406 C 237.050781 49.898438 241.542969 50.601562 245.5 52.664062 C 249.589844 54.824219 254.746094 59.359375 256.167969 68.808594 C 256.167969 68.808594 256.1875 69.019531 256.1875 69.035156 C 256.328125 69.640625 256.90625 70.046875 257.511719 69.914062 C 258.074219 69.800781 258.660156 69.667969 259.222656 69.554688 C 260.679688 69.238281 262.046875 68.921875 263.46875 68.808594 C 265.371094 68.632812 267.199219 68.746094 268.855469 69.082031 C 270.269531 69.371094 271.621094 69.851562 272.855469 70.519531 L 273.375 70.816406 C 275.078125 71.828125 276.648438 73.238281 278 74.984375 C 280.691406 78.425781 282.132812 82.3125 282.175781 86.199219 L 282.175781 86.488281 C 282.175781 90.128906 280.921875 93.542969 278.492188 96.507812 Z M 279.769531 73.597656 C 278.246094 71.617188 276.472656 70.027344 274.5 68.859375 L 273.9375 68.546875 C 272.472656 67.78125 270.925781 67.21875 269.304688 66.886719 C 267.445312 66.5 265.398438 66.386719 263.285156 66.5625 C 261.714844 66.703125 260.203125 67.042969 258.75 67.351562 C 258.574219 67.394531 258.386719 67.449219 258.214844 67.464844 C 256.835938 59.851562 252.703125 53.917969 246.527344 50.691406 C 242.148438 48.375 237.121094 47.609375 232.398438 48.488281 C 230.136719 48.863281 227.976562 49.609375 226.046875 50.691406 C 219.886719 53.902344 215.796875 59.789062 214.359375 67.464844 C 214.210938 67.421875 214.097656 67.394531 214.050781 67.394531 C 205.558594 65.089844 197.609375 67.394531 192.800781 73.597656 C 189.808594 77.441406 188.195312 81.777344 188.152344 86.179688 C 188.082031 90.445312 189.5 94.492188 192.214844 97.789062 C 193.652344 99.808594 195.160156 101.183594 196.800781 101.941406 C 197.941406 102.757812 198.59375 103.519531 198.890625 104.34375 C 199.046875 104.800781 199.46875 105.089844 199.941406 105.089844 L 272.628906 105.089844 C 273.101562 105.089844 273.53125 104.800781 273.683594 104.34375 C 273.980469 103.519531 274.628906 102.757812 275.621094 102.035156 C 277.410156 101.183594 278.894531 99.835938 280.289062 97.859375 C 283.054688 94.492188 284.492188 90.445312 284.421875 86.179688 C 284.351562 81.777344 282.761719 77.441406 279.769531 73.597656 " fill-opacity="1" fill-rule="nonzero"/><path fill="#f77f00" d="M 282.175781 86.199219 L 282.175781 86.488281 C 282.175781 90.128906 280.921875 93.542969 278.492188 96.507812 C 277.28125 98.238281 276.085938 99.316406 274.472656 100.105469 C 273.234375 101 272.410156 101.878906 271.890625 102.84375 L 200.679688 102.84375 C 200.171875 101.859375 199.3125 100.976562 197.925781 100.019531 C 196.484375 99.316406 195.265625 98.195312 194.011719 96.421875 C 191.589844 93.480469 190.328125 89.953125 190.398438 86.199219 C 190.441406 82.3125 191.878906 78.425781 194.554688 74.984375 C 198.792969 69.527344 205.875 67.492188 213.492188 69.554688 C 215.261719 70 215.4375 70.046875 215.894531 69.757812 C 216.15625 69.582031 216.316406 69.335938 216.386719 69.019531 C 216.386719 69.019531 216.402344 68.789062 216.429688 68.773438 C 217.824219 59.359375 222.992188 54.824219 227.097656 52.664062 C 228.855469 51.699219 230.757812 51.050781 232.785156 50.691406 C 237.050781 49.898438 241.542969 50.601562 245.5 52.664062 C 249.589844 54.824219 254.746094 59.359375 256.167969 68.808594 C 256.167969 68.808594 256.1875 69.019531 256.1875 69.035156 C 256.328125 69.640625 256.90625 70.046875 257.511719 69.914062 C 258.074219 69.800781 258.660156 69.667969 259.222656 69.554688 C 260.679688 69.238281 262.046875 68.921875 263.46875 68.808594 C 265.371094 68.632812 267.199219 68.746094 268.855469 69.082031 C 270.269531 69.371094 271.621094 69.851562 272.855469 70.519531 L 273.375 70.816406 C 275.078125 71.828125 276.648438 73.238281 278 74.984375 C 280.691406 78.425781 282.132812 82.3125 282.175781 86.199219 " fill-opacity="1" fill-rule="nonzero"/><path fill="#003049" d="M 267.199219 139.257812 C 266.539062 140.285156 265.820312 141.273438 265.109375 142.292969 C 264.1875 143.566406 263.214844 144.890625 262.390625 146.285156 C 261.355469 148.039062 260.503906 149.882812 259.667969 151.679688 C 258.660156 153.902344 257.695312 156.007812 256.386719 157.945312 C 252.816406 163.246094 247.140625 167.21875 240.804688 168.878906 C 233.636719 170.746094 227.414062 167.851562 223.441406 165.089844 C 219.28125 162.167969 215.867188 158.148438 213.78125 153.742188 C 213.375 152.847656 212.992188 151.917969 212.613281 151.023438 C 211.578125 148.488281 210.5 145.882812 208.542969 143.792969 C 205.488281 140.492188 203.242188 136 202.523438 131.753906 L 202.390625 131.035156 C 201.945312 128.359375 201.496094 125.851562 202.03125 123.347656 C 202.257812 122.382812 202.820312 121.515625 203.398438 120.585938 C 204.101562 119.488281 204.8125 118.367188 205.066406 116.953125 C 205.085938 116.839844 205.109375 116.363281 205.109375 115.601562 C 205.109375 115.222656 205.109375 114.257812 205.128906 113.582031 C 212.585938 113.496094 259.757812 113.496094 267.398438 113.582031 C 267.445312 113.828125 267.488281 114.101562 267.503906 114.347656 C 267.503906 114.566406 267.488281 114.820312 267.488281 115.039062 C 267.445312 115.488281 267.417969 115.945312 267.460938 116.390625 C 267.6875 118.207031 268.539062 119.53125 269.261719 120.523438 C 269.933594 121.460938 270.425781 122.636719 270.628906 123.894531 C 271.4375 128.5625 270.023438 134.878906 267.199219 139.257812 Z M 272.855469 123.507812 C 272.585938 121.917969 271.953125 120.410156 271.058594 119.199219 C 270.226562 118.050781 269.820312 117.128906 269.707031 116.121094 C 269.664062 115.804688 269.691406 115.515625 269.707031 115.222656 C 269.734375 114.910156 269.75 114.566406 269.75 114.257812 C 269.734375 113.871094 269.664062 113.496094 269.601562 113.109375 C 269.53125 112.863281 269.488281 112.609375 269.460938 112.390625 C 269.417969 111.8125 268.96875 111.355469 268.382812 111.355469 C 265.398438 111.25 207.171875 111.25 204.191406 111.355469 C 202.839844 111.40625 202.839844 112.722656 202.863281 115.757812 L 202.863281 116.523438 C 202.679688 117.515625 202.101562 118.410156 201.496094 119.375 C 200.839844 120.4375 200.144531 121.515625 199.855469 122.875 C 199.199219 125.78125 199.699219 128.65625 200.1875 131.414062 L 200.304688 132.132812 C 201.109375 136.851562 203.515625 141.660156 206.910156 145.320312 C 208.570312 147.117188 209.535156 149.433594 210.542969 151.882812 C 210.929688 152.820312 211.332031 153.761719 211.761719 154.691406 C 214.027344 159.515625 217.625 163.738281 222.160156 166.90625 C 226.667969 170.070312 231.546875 171.714844 236.285156 171.714844 C 237.996094 171.714844 239.699219 171.492188 241.367188 171.0625 C 248.238281 169.265625 254.371094 164.929688 258.257812 159.199219 C 259.644531 157.113281 260.703125 154.824219 261.714844 152.621094 C 262.519531 150.867188 263.328125 149.074219 264.320312 147.425781 C 265.109375 146.128906 266.023438 144.828125 266.925781 143.589844 C 267.664062 142.582031 268.410156 141.546875 269.085938 140.492188 C 272.183594 135.660156 273.734375 128.703125 272.855469 123.507812 " fill-opacity="1" fill-rule="nonzero"/><path fill="#003049" d="M 267.199219 139.257812 C 266.539062 140.285156 265.820312 141.273438 265.109375 142.292969 C 264.1875 143.566406 263.214844 144.890625 262.390625 146.285156 C 261.355469 148.039062 260.503906 149.882812 259.667969 151.679688 C 258.660156 153.902344 257.695312 156.007812 256.386719 157.945312 C 252.816406 163.246094 247.140625 167.21875 240.804688 168.878906 C 233.636719 170.746094 227.414062 167.851562 223.441406 165.089844 C 219.28125 162.167969 215.867188 158.148438 213.78125 153.742188 C 213.375 152.847656 212.992188 151.917969 212.613281 151.023438 C 211.578125 148.488281 210.5 145.882812 208.542969 143.792969 C 205.488281 140.492188 203.242188 136 202.523438 131.753906 L 202.390625 131.035156 C 201.945312 128.359375 201.496094 125.851562 202.03125 123.347656 C 202.257812 122.382812 202.820312 121.515625 203.398438 120.585938 C 204.101562 119.488281 204.8125 118.367188 205.066406 116.953125 C 205.085938 116.839844 205.109375 116.363281 205.109375 115.601562 C 205.109375 115.222656 205.109375 114.257812 205.128906 113.582031 C 212.585938 113.496094 259.757812 113.496094 267.398438 113.582031 C 267.445312 113.828125 267.488281 114.101562 267.503906 114.347656 C 267.503906 114.566406 267.488281 114.820312 267.488281 115.039062 C 267.445312 115.488281 267.417969 115.945312 267.460938 116.390625 C 267.6875 118.207031 268.539062 119.53125 269.261719 120.523438 C 269.933594 121.460938 270.425781 122.636719 270.628906 123.894531 C 271.4375 128.5625 270.023438 134.878906 267.199219 139.257812 " fill-opacity="1" fill-rule="nonzero"/></svg>