<svg xmlns="http://www.w3.org/2000/svg" xmlns:xlink="http://www.w3.org/1999/xlink" width="500" zoomAndPan="magnify" viewBox="0 0 375 374.999991" height="500" preserveAspectRatio="xMidYMid meet" version="1.0"><defs><g/></defs><g fill="#d62828" fill-opacity="1"><g transform="translate(230.753839, 230.045346)"><g><path d="M -32.59375 -15.40625 L -21.59375 -15.40625 L -53.796875 -68.203125 L -86 -15.40625 L -75.203125 -15.40625 L -53.796875 -51 Z M -32.59375 -15.40625 "/></g></g></g><g fill="#d62828" fill-opacity="1"><g transform="translate(164.871116, 144.946879)"><g><path d="M 32.59375 15.40625 L 21.59375 15.40625 L 53.796875 68.203125 L 86 15.40625 L 75.203125 15.40625 L 53.796875 51 Z M 32.59375 15.40625 "/></g></g></g><path stroke-linecap="butt" transform="matrix(0.0037329, -0.749991, 0.749991, 0.0037329, 240.381289, 214.357004)" fill="none" stroke-linejoin="miter" d="M -0.00204967 6.502123 L 72.295721 6.501658 " stroke="#d62828" stroke-width="13" stroke-opacity="1" stroke-miterlimit="4"/><path stroke-linecap="butt" transform="matrix(0.00211371, -0.749997, 0.749997, 0.00211371, 129.747022, 214.363344)" fill="none" stroke-linejoin="miter" d="M -0.00243378 6.498795 L 63.84158 6.501156 " stroke="#d62828" stroke-width="13" stroke-opacity="1" stroke-miterlimit="4"/><path stroke-linecap="butt" transform="matrix(-0.75, 0.000000001309, -0.000000001309, -0.75, 139.634775, 169.424799)" fill="none" stroke-linejoin="miter" d="M -0.0025923 6.498691 L 36.346368 6.498691 " stroke="#d62828" stroke-width="13" stroke-opacity="1" stroke-miterlimit="4"/><path stroke-linecap="butt" transform="matrix(-0.75, 0, 0, -0.75, 161.072468, 169.424799)" fill="none" stroke-linejoin="miter" d="M -0.0023339 6.498691 L 22.591418 6.498691 " stroke="#d62828" stroke-width="13" stroke-opacity="1" stroke-miterlimit="4"/></svg>