<svg xmlns="http://www.w3.org/2000/svg" xmlns:xlink="http://www.w3.org/1999/xlink" width="154" zoomAndPan="magnify" viewBox="0 0 115.5 30.000001" height="40" preserveAspectRatio="xMidYMid meet" version="1.0"><defs><g/><clipPath id="86b47cfdf3"><path d="M 53 0 L 86 0 L 86 29.03125 L 53 29.03125 Z M 53 0 " clip-rule="nonzero"/></clipPath><clipPath id="f3c67ffd0f"><path d="M 30 0 L 62 0 L 62 29.03125 L 30 29.03125 Z M 30 0 " clip-rule="nonzero"/></clipPath></defs><g fill="#d62828" fill-opacity="1"><g transform="translate(66.410639, 24.069039)"><g><path d="M -6.921875 -3.265625 L -4.59375 -3.265625 L -11.421875 -14.484375 L -18.265625 -3.265625 L -15.96875 -3.265625 L -11.421875 -10.828125 Z M -6.921875 -3.265625 "/></g></g></g><g fill="#d62828" fill-opacity="1"><g transform="translate(52.412933, 6.010684)"><g><path d="M 6.921875 3.265625 L 4.59375 3.265625 L 11.421875 14.484375 L 18.265625 3.265625 L 15.96875 3.265625 L 11.421875 10.828125 Z M 6.921875 3.265625 "/></g></g></g><g clip-path="url(#86b47cfdf3)"><path stroke-linecap="butt" transform="matrix(0.00455991, -0.916149, 0.916149, 0.00455991, 68.11349, 20.744674)" fill="none" stroke-linejoin="miter" d="M 0.00165501 1.500612 L 12.567002 1.502028 " stroke="#d62828" stroke-width="3" stroke-opacity="1" stroke-miterlimit="4"/></g><g clip-path="url(#f3c67ffd0f)"><path stroke-linecap="butt" transform="matrix(0.002582, -0.916156, 0.916156, 0.002582, 44.626055, 20.7482)" fill="none" stroke-linejoin="miter" d="M -0.00200194 1.49969 L 11.096502 1.498257 " stroke="#d62828" stroke-width="3" stroke-opacity="1" stroke-miterlimit="4"/></g><path stroke-linecap="butt" transform="matrix(-0.91616, 0.000000001599, -0.000000001599, -0.91616, 47.516499, 11.547386)" fill="none" stroke-linejoin="miter" d="M 0.00095416 1.501387 L 6.315524 1.501387 " stroke="#d62828" stroke-width="3" stroke-opacity="1" stroke-miterlimit="4"/><path stroke-linecap="butt" transform="matrix(-0.91616, 0, 0, -0.91616, 51.613847, 11.547386)" fill="none" stroke-linejoin="miter" d="M 0.000617808 1.501387 L 3.927504 1.501387 " stroke="#d62828" stroke-width="3" stroke-opacity="1" stroke-miterlimit="4"/></svg>