<svg xmlns="http://www.w3.org/2000/svg" xmlns:xlink="http://www.w3.org/1999/xlink" width="154" zoomAndPan="magnify" viewBox="0 0 115.5 30.000001" height="40" preserveAspectRatio="xMidYMid meet" version="1.0"><defs><g/><clipPath id="3a8fa13865"><path d="M 53 0 L 78 0 L 78 29.03125 L 53 29.03125 Z M 53 0 " clip-rule="nonzero"/></clipPath><clipPath id="5c608fd08b"><path d="M 34 0 L 60 0 L 60 29.03125 L 34 29.03125 Z M 34 0 " clip-rule="nonzero"/></clipPath></defs><g fill="#d62828" fill-opacity="1"><g transform="translate(63.049183, 21.664644)"><g><path d="M -5.484375 -2.59375 L -3.640625 -2.59375 L -9.046875 -11.46875 L -14.46875 -2.59375 L -12.65625 -2.59375 L -9.046875 -8.578125 Z M -5.484375 -2.59375 "/></g></g></g><g fill="#d62828" fill-opacity="1"><g transform="translate(51.959819, 7.35833)"><g><path d="M 5.484375 2.59375 L 3.640625 2.59375 L 9.046875 11.46875 L 14.46875 2.59375 L 12.65625 2.59375 L 9.046875 8.578125 Z M 5.484375 2.59375 "/></g></g></g><g clip-path="url(#3a8fa13865)"><path stroke-linecap="butt" transform="matrix(0.00361248, -0.725797, 0.725797, 0.00361248, 64.398228, 19.030991)" fill="none" stroke-linejoin="miter" d="M 0.00173585 1.501862 L 12.563333 1.498542 " stroke="#d62828" stroke-width="3" stroke-opacity="1" stroke-miterlimit="4"/></g><g clip-path="url(#5c608fd08b)"><path stroke-linecap="butt" transform="matrix(0.00204553, -0.725804, 0.725804, 0.00204553, 45.790852, 19.033785)" fill="none" stroke-linejoin="miter" d="M 0.0023359 1.499096 L 11.09457 1.500127 " stroke="#d62828" stroke-width="3" stroke-opacity="1" stroke-miterlimit="4"/></g><path stroke-linecap="butt" transform="matrix(-0.725806, 0.00000000126677, -0.00000000126677, -0.725806, 48.08074, 11.744654)" fill="none" stroke-linejoin="miter" d="M -0.00177915 1.499579 L 6.316624 1.499579 " stroke="#d62828" stroke-width="3" stroke-opacity="1" stroke-miterlimit="4"/><path stroke-linecap="butt" transform="matrix(-0.725806, 0, 0, -0.725806, 51.326767, 11.744655)" fill="none" stroke-linejoin="miter" d="M -0.00187102 1.49958 L 3.926948 1.49958 " stroke="#d62828" stroke-width="3" stroke-opacity="1" stroke-miterlimit="4"/></svg>