<svg xmlns="http://www.w3.org/2000/svg" xmlns:xlink="http://www.w3.org/1999/xlink" width="154" zoomAndPan="magnify" viewBox="0 0 115.5 30.000001" height="40" preserveAspectRatio="xMidYMid meet" version="1.0"><defs><g/></defs><g fill="#d62828" fill-opacity="1"><g transform="translate(63.049183, 17.208454)"><g><path d="M -5.484375 -2.59375 L -3.640625 -2.59375 L -9.046875 -11.46875 L -14.46875 -2.59375 L -12.65625 -2.59375 L -9.046875 -8.578125 Z M -5.484375 -2.59375 "/></g></g></g><g fill="#d62828" fill-opacity="1"><g transform="translate(51.959819, 2.902142)"><g><path d="M 5.484375 2.59375 L 3.640625 2.59375 L 9.046875 11.46875 L 14.46875 2.59375 L 12.65625 2.59375 L 9.046875 8.578125 Z M 5.484375 2.59375 "/></g></g></g><path stroke-linecap="butt" transform="matrix(0.00361248, -0.725797, 0.725797, 0.00361248, 64.398228, 14.574803)" fill="none" stroke-linejoin="miter" d="M -0.00248354 1.501883 L 12.564495 1.498536 " stroke="#d62828" stroke-width="3" stroke-opacity="1" stroke-miterlimit="4"/><path stroke-linecap="butt" transform="matrix(0.00204553, -0.725804, 0.725804, 0.00204553, 45.790852, 14.577597)" fill="none" stroke-linejoin="miter" d="M -0.0018848 1.499108 L 11.095732 1.500124 " stroke="#d62828" stroke-width="3" stroke-opacity="1" stroke-miterlimit="4"/><path stroke-linecap="butt" transform="matrix(-0.725806, 0.00000000126677, -0.00000000126677, -0.725806, 48.08074, 7.288466)" fill="none" stroke-linejoin="miter" d="M -0.00177915 1.50074 L 6.316624 1.50074 " stroke="#d62828" stroke-width="3" stroke-opacity="1" stroke-miterlimit="4"/><path stroke-linecap="butt" transform="matrix(-0.725806, 0, 0, -0.725806, 51.326767, 7.288466)" fill="none" stroke-linejoin="miter" d="M -0.00187102 1.50074 L 3.926948 1.50074 " stroke="#d62828" stroke-width="3" stroke-opacity="1" stroke-miterlimit="4"/><g fill="#d62828" fill-opacity="1"><g transform="translate(22.089083, 23.467741)"><g><path d="M 5.84375 -5.703125 L 3.65625 -5.703125 L 3.65625 0 L 2.328125 0 L 2.328125 -5.703125 L 0.140625 -5.703125 L 0.140625 -6.859375 L 5.84375 -6.859375 Z M 5.84375 -5.703125 "/></g></g></g><g fill="#d62828" fill-opacity="1"><g transform="translate(28.077042, 23.467741)"><g><path d="M 3.609375 -3.953125 C 3.210938 -3.953125 2.859375 -3.875 2.546875 -3.71875 C 2.242188 -3.5625 2.023438 -3.34375 1.890625 -3.0625 L 1.890625 0 L 0.59375 0 L 0.59375 -5.0625 L 1.78125 -5.0625 L 1.78125 -3.984375 C 1.957031 -4.328125 2.179688 -4.597656 2.453125 -4.796875 C 2.734375 -5.003906 3.03125 -5.117188 3.34375 -5.140625 C 3.414062 -5.140625 3.46875 -5.140625 3.5 -5.140625 C 3.539062 -5.140625 3.578125 -5.132812 3.609375 -5.125 Z M 3.609375 -3.953125 "/></g></g></g><g fill="#d62828" fill-opacity="1"><g transform="translate(31.820722, 23.467741)"><g><path d="M 0.234375 -1.5 C 0.234375 -1.832031 0.328125 -2.117188 0.515625 -2.359375 C 0.703125 -2.609375 0.957031 -2.800781 1.28125 -2.9375 C 1.613281 -3.070312 1.992188 -3.140625 2.421875 -3.140625 C 2.628906 -3.140625 2.84375 -3.125 3.0625 -3.09375 C 3.28125 -3.0625 3.472656 -3.007812 3.640625 -2.9375 L 3.640625 -3.21875 C 3.640625 -3.53125 3.539062 -3.773438 3.34375 -3.953125 C 3.15625 -4.128906 2.875 -4.21875 2.5 -4.21875 C 2.226562 -4.21875 1.960938 -4.164062 1.703125 -4.0625 C 1.453125 -3.96875 1.191406 -3.828125 0.921875 -3.640625 L 0.5 -4.5 C 0.832031 -4.71875 1.175781 -4.878906 1.53125 -4.984375 C 1.882812 -5.097656 2.253906 -5.15625 2.640625 -5.15625 C 3.359375 -5.15625 3.921875 -4.972656 4.328125 -4.609375 C 4.734375 -4.253906 4.9375 -3.738281 4.9375 -3.0625 L 4.9375 -1.453125 C 4.9375 -1.316406 4.957031 -1.21875 5 -1.15625 C 5.050781 -1.101562 5.128906 -1.066406 5.234375 -1.046875 L 5.234375 0 C 5.117188 0.0195312 5.015625 0.0351562 4.921875 0.046875 C 4.828125 0.0546875 4.75 0.0625 4.6875 0.0625 C 4.425781 0.0625 4.226562 0.00390625 4.09375 -0.109375 C 3.96875 -0.222656 3.890625 -0.363281 3.859375 -0.53125 L 3.828125 -0.796875 C 3.609375 -0.515625 3.332031 -0.296875 3 -0.140625 C 2.675781 0.015625 2.34375 0.09375 2 0.09375 C 1.664062 0.09375 1.363281 0.0234375 1.09375 -0.109375 C 0.832031 -0.242188 0.625 -0.429688 0.46875 -0.671875 C 0.3125 -0.921875 0.234375 -1.195312 0.234375 -1.5 Z M 3.390625 -1.234375 C 3.460938 -1.316406 3.519531 -1.394531 3.5625 -1.46875 C 3.613281 -1.550781 3.640625 -1.625 3.640625 -1.6875 L 3.640625 -2.203125 C 3.484375 -2.265625 3.3125 -2.3125 3.125 -2.34375 C 2.945312 -2.382812 2.78125 -2.40625 2.625 -2.40625 C 2.289062 -2.40625 2.015625 -2.332031 1.796875 -2.1875 C 1.578125 -2.039062 1.46875 -1.847656 1.46875 -1.609375 C 1.46875 -1.472656 1.503906 -1.347656 1.578125 -1.234375 C 1.648438 -1.117188 1.753906 -1.023438 1.890625 -0.953125 C 2.023438 -0.878906 2.1875 -0.84375 2.375 -0.84375 C 2.5625 -0.84375 2.75 -0.878906 2.9375 -0.953125 C 3.125 -1.035156 3.273438 -1.128906 3.390625 -1.234375 Z M 3.390625 -1.234375 "/></g></g></g><g fill="#d62828" fill-opacity="1"><g transform="translate(37.373369, 23.467741)"><g><path d="M 1.953125 0 L 0.09375 -5.0625 L 1.4375 -5.0625 L 2.703125 -1.1875 L 4 -5.0625 L 5.21875 -5.0625 L 3.359375 0 Z M 1.953125 0 "/></g></g></g><g fill="#d62828" fill-opacity="1"><g transform="translate(42.693853, 23.467741)"><g><path d="M 2.9375 0.09375 C 2.53125 0.09375 2.160156 0.0234375 1.828125 -0.109375 C 1.503906 -0.242188 1.222656 -0.429688 0.984375 -0.671875 C 0.753906 -0.921875 0.578125 -1.203125 0.453125 -1.515625 C 0.328125 -1.828125 0.265625 -2.15625 0.265625 -2.5 C 0.265625 -2.988281 0.375 -3.429688 0.59375 -3.828125 C 0.8125 -4.234375 1.117188 -4.554688 1.515625 -4.796875 C 1.921875 -5.035156 2.398438 -5.15625 2.953125 -5.15625 C 3.503906 -5.15625 3.976562 -5.035156 4.375 -4.796875 C 4.769531 -4.554688 5.070312 -4.234375 5.28125 -3.828125 C 5.488281 -3.429688 5.59375 -3.003906 5.59375 -2.546875 C 5.59375 -2.472656 5.585938 -2.394531 5.578125 -2.3125 C 5.578125 -2.238281 5.570312 -2.175781 5.5625 -2.125 L 1.640625 -2.125 C 1.671875 -1.863281 1.75 -1.632812 1.875 -1.4375 C 2 -1.25 2.160156 -1.101562 2.359375 -1 C 2.554688 -0.894531 2.765625 -0.84375 2.984375 -0.84375 C 3.242188 -0.84375 3.488281 -0.90625 3.71875 -1.03125 C 3.945312 -1.164062 4.101562 -1.332031 4.1875 -1.53125 L 5.296875 -1.234375 C 5.171875 -0.972656 4.992188 -0.738281 4.765625 -0.53125 C 4.546875 -0.332031 4.28125 -0.175781 3.96875 -0.0625 C 3.65625 0.0390625 3.3125 0.09375 2.9375 0.09375 Z M 1.609375 -2.9375 L 4.265625 -2.9375 C 4.242188 -3.195312 4.171875 -3.421875 4.046875 -3.609375 C 3.929688 -3.796875 3.773438 -3.941406 3.578125 -4.046875 C 3.378906 -4.160156 3.164062 -4.21875 2.9375 -4.21875 C 2.695312 -4.21875 2.484375 -4.160156 2.296875 -4.046875 C 2.109375 -3.941406 1.953125 -3.796875 1.828125 -3.609375 C 1.710938 -3.421875 1.640625 -3.195312 1.609375 -2.9375 Z M 1.609375 -2.9375 "/></g></g></g><g fill="#d62828" fill-opacity="1"><g transform="translate(48.488344, 23.467741)"><g><path d="M 0.578125 -7.0625 L 1.875 -7.0625 L 1.875 -1.625 C 1.875 -1.394531 1.910156 -1.238281 1.984375 -1.15625 C 2.066406 -1.070312 2.175781 -1.03125 2.3125 -1.03125 C 2.414062 -1.03125 2.519531 -1.039062 2.625 -1.0625 C 2.738281 -1.09375 2.835938 -1.128906 2.921875 -1.171875 L 3.09375 -0.1875 C 2.914062 -0.101562 2.710938 -0.0390625 2.484375 0 C 2.253906 0.0507812 2.046875 0.078125 1.859375 0.078125 C 1.453125 0.078125 1.132812 -0.03125 0.90625 -0.25 C 0.6875 -0.46875 0.578125 -0.773438 0.578125 -1.171875 Z M 0.578125 -7.0625 "/></g></g></g><g fill="#d62828" fill-opacity="1"><g transform="translate(51.55488, 23.467741)"><g><path d="M 2.578125 -6.859375 L 3.9375 -6.859375 L 6.453125 0 L 5.09375 0 L 4.453125 -1.71875 L 2.046875 -1.71875 L 1.421875 0 L 0.046875 0 Z M 4.203125 -2.65625 L 3.265625 -5.484375 L 2.265625 -2.65625 Z M 4.203125 -2.65625 "/></g></g></g><g fill="#d62828" fill-opacity="1"><g transform="translate(58.055541, 23.467741)"><g><path d="M 5.296875 0 L 4 0 L 4 -2.84375 C 4 -3.25 3.925781 -3.546875 3.78125 -3.734375 C 3.644531 -3.921875 3.453125 -4.015625 3.203125 -4.015625 C 3.023438 -4.015625 2.847656 -3.96875 2.671875 -3.875 C 2.492188 -3.789062 2.332031 -3.664062 2.1875 -3.5 C 2.050781 -3.34375 1.953125 -3.160156 1.890625 -2.953125 L 1.890625 0 L 0.59375 0 L 0.59375 -5.0625 L 1.765625 -5.0625 L 1.765625 -4.125 C 1.890625 -4.34375 2.050781 -4.523438 2.25 -4.671875 C 2.445312 -4.828125 2.675781 -4.945312 2.9375 -5.03125 C 3.207031 -5.113281 3.484375 -5.15625 3.765625 -5.15625 C 4.085938 -5.15625 4.347656 -5.097656 4.546875 -4.984375 C 4.753906 -4.867188 4.910156 -4.71875 5.015625 -4.53125 C 5.117188 -4.34375 5.191406 -4.128906 5.234375 -3.890625 C 5.273438 -3.648438 5.296875 -3.40625 5.296875 -3.15625 Z M 5.296875 0 "/></g></g></g><g fill="#d62828" fill-opacity="1"><g transform="translate(63.898396, 23.467741)"><g><path d="M 0.28125 -2.53125 C 0.28125 -3.019531 0.375 -3.460938 0.5625 -3.859375 C 0.757812 -4.253906 1.03125 -4.566406 1.375 -4.796875 C 1.71875 -5.035156 2.109375 -5.15625 2.546875 -5.15625 C 2.921875 -5.15625 3.253906 -5.0625 3.546875 -4.875 C 3.847656 -4.695312 4.082031 -4.460938 4.25 -4.171875 L 4.25 -7.0625 L 5.546875 -7.0625 L 5.546875 -1.453125 C 5.546875 -1.316406 5.566406 -1.21875 5.609375 -1.15625 C 5.660156 -1.101562 5.738281 -1.066406 5.84375 -1.046875 L 5.84375 0 C 5.625 0.0390625 5.441406 0.0625 5.296875 0.0625 C 5.066406 0.0625 4.875 0.00390625 4.71875 -0.109375 C 4.570312 -0.222656 4.488281 -0.375 4.46875 -0.5625 L 4.453125 -0.875 C 4.265625 -0.5625 4.007812 -0.320312 3.6875 -0.15625 C 3.375 0.0078125 3.039062 0.09375 2.6875 0.09375 C 2.34375 0.09375 2.019531 0.0234375 1.71875 -0.109375 C 1.425781 -0.242188 1.171875 -0.429688 0.953125 -0.671875 C 0.742188 -0.910156 0.578125 -1.1875 0.453125 -1.5 C 0.335938 -1.820312 0.28125 -2.164062 0.28125 -2.53125 Z M 4.25 -1.859375 L 4.25 -3.0625 C 4.1875 -3.25 4.082031 -3.414062 3.9375 -3.5625 C 3.800781 -3.71875 3.644531 -3.835938 3.46875 -3.921875 C 3.300781 -4.003906 3.128906 -4.046875 2.953125 -4.046875 C 2.753906 -4.046875 2.570312 -4.003906 2.40625 -3.921875 C 2.25 -3.835938 2.109375 -3.722656 1.984375 -3.578125 C 1.867188 -3.441406 1.78125 -3.28125 1.71875 -3.09375 C 1.65625 -2.90625 1.625 -2.707031 1.625 -2.5 C 1.625 -2.300781 1.65625 -2.109375 1.71875 -1.921875 C 1.789062 -1.734375 1.890625 -1.570312 2.015625 -1.4375 C 2.148438 -1.300781 2.300781 -1.191406 2.46875 -1.109375 C 2.644531 -1.035156 2.832031 -1 3.03125 -1 C 3.15625 -1 3.28125 -1.019531 3.40625 -1.0625 C 3.53125 -1.101562 3.644531 -1.160156 3.75 -1.234375 C 3.863281 -1.316406 3.960938 -1.410156 4.046875 -1.515625 C 4.140625 -1.617188 4.207031 -1.734375 4.25 -1.859375 Z M 4.25 -1.859375 "/></g></g></g><g fill="#d62828" fill-opacity="1"><g transform="translate(70.137866, 23.467741)"><g><path d="M 6.3125 0 L 6.3125 -4.5 L 4.5625 -1.15625 L 3.8125 -1.15625 L 2.046875 -4.5 L 2.046875 0 L 0.71875 0 L 0.71875 -6.859375 L 2.140625 -6.859375 L 4.171875 -2.953125 L 6.234375 -6.859375 L 7.65625 -6.859375 L 7.65625 0 Z M 6.3125 0 "/></g></g></g><g fill="#d62828" fill-opacity="1"><g transform="translate(78.505528, 23.467741)"><g><path d="M 2.9375 0.09375 C 2.53125 0.09375 2.160156 0.0234375 1.828125 -0.109375 C 1.503906 -0.242188 1.222656 -0.429688 0.984375 -0.671875 C 0.753906 -0.921875 0.578125 -1.203125 0.453125 -1.515625 C 0.328125 -1.828125 0.265625 -2.15625 0.265625 -2.5 C 0.265625 -2.988281 0.375 -3.429688 0.59375 -3.828125 C 0.8125 -4.234375 1.117188 -4.554688 1.515625 -4.796875 C 1.921875 -5.035156 2.398438 -5.15625 2.953125 -5.15625 C 3.503906 -5.15625 3.976562 -5.035156 4.375 -4.796875 C 4.769531 -4.554688 5.070312 -4.234375 5.28125 -3.828125 C 5.488281 -3.429688 5.59375 -3.003906 5.59375 -2.546875 C 5.59375 -2.472656 5.585938 -2.394531 5.578125 -2.3125 C 5.578125 -2.238281 5.570312 -2.175781 5.5625 -2.125 L 1.640625 -2.125 C 1.671875 -1.863281 1.75 -1.632812 1.875 -1.4375 C 2 -1.25 2.160156 -1.101562 2.359375 -1 C 2.554688 -0.894531 2.765625 -0.84375 2.984375 -0.84375 C 3.242188 -0.84375 3.488281 -0.90625 3.71875 -1.03125 C 3.945312 -1.164062 4.101562 -1.332031 4.1875 -1.53125 L 5.296875 -1.234375 C 5.171875 -0.972656 4.992188 -0.738281 4.765625 -0.53125 C 4.546875 -0.332031 4.28125 -0.175781 3.96875 -0.0625 C 3.65625 0.0390625 3.3125 0.09375 2.9375 0.09375 Z M 1.609375 -2.9375 L 4.265625 -2.9375 C 4.242188 -3.195312 4.171875 -3.421875 4.046875 -3.609375 C 3.929688 -3.796875 3.773438 -3.941406 3.578125 -4.046875 C 3.378906 -4.160156 3.164062 -4.21875 2.9375 -4.21875 C 2.695312 -4.21875 2.484375 -4.160156 2.296875 -4.046875 C 2.109375 -3.941406 1.953125 -3.796875 1.828125 -3.609375 C 1.710938 -3.421875 1.640625 -3.195312 1.609375 -2.9375 Z M 1.609375 -2.9375 "/></g></g></g><g fill="#d62828" fill-opacity="1"><g transform="translate(84.300019, 23.467741)"><g><path d="M 0.234375 -1.5 C 0.234375 -1.832031 0.328125 -2.117188 0.515625 -2.359375 C 0.703125 -2.609375 0.957031 -2.800781 1.28125 -2.9375 C 1.613281 -3.070312 1.992188 -3.140625 2.421875 -3.140625 C 2.628906 -3.140625 2.84375 -3.125 3.0625 -3.09375 C 3.28125 -3.0625 3.472656 -3.007812 3.640625 -2.9375 L 3.640625 -3.21875 C 3.640625 -3.53125 3.539062 -3.773438 3.34375 -3.953125 C 3.15625 -4.128906 2.875 -4.21875 2.5 -4.21875 C 2.226562 -4.21875 1.960938 -4.164062 1.703125 -4.0625 C 1.453125 -3.96875 1.191406 -3.828125 0.921875 -3.640625 L 0.5 -4.5 C 0.832031 -4.71875 1.175781 -4.878906 1.53125 -4.984375 C 1.882812 -5.097656 2.253906 -5.15625 2.640625 -5.15625 C 3.359375 -5.15625 3.921875 -4.972656 4.328125 -4.609375 C 4.734375 -4.253906 4.9375 -3.738281 4.9375 -3.0625 L 4.9375 -1.453125 C 4.9375 -1.316406 4.957031 -1.21875 5 -1.15625 C 5.050781 -1.101562 5.128906 -1.066406 5.234375 -1.046875 L 5.234375 0 C 5.117188 0.0195312 5.015625 0.0351562 4.921875 0.046875 C 4.828125 0.0546875 4.75 0.0625 4.6875 0.0625 C 4.425781 0.0625 4.226562 0.00390625 4.09375 -0.109375 C 3.96875 -0.222656 3.890625 -0.363281 3.859375 -0.53125 L 3.828125 -0.796875 C 3.609375 -0.515625 3.332031 -0.296875 3 -0.140625 C 2.675781 0.015625 2.34375 0.09375 2 0.09375 C 1.664062 0.09375 1.363281 0.0234375 1.09375 -0.109375 C 0.832031 -0.242188 0.625 -0.429688 0.46875 -0.671875 C 0.3125 -0.921875 0.234375 -1.195312 0.234375 -1.5 Z M 3.390625 -1.234375 C 3.460938 -1.316406 3.519531 -1.394531 3.5625 -1.46875 C 3.613281 -1.550781 3.640625 -1.625 3.640625 -1.6875 L 3.640625 -2.203125 C 3.484375 -2.265625 3.3125 -2.3125 3.125 -2.34375 C 2.945312 -2.382812 2.78125 -2.40625 2.625 -2.40625 C 2.289062 -2.40625 2.015625 -2.332031 1.796875 -2.1875 C 1.578125 -2.039062 1.46875 -1.847656 1.46875 -1.609375 C 1.46875 -1.472656 1.503906 -1.347656 1.578125 -1.234375 C 1.648438 -1.117188 1.753906 -1.023438 1.890625 -0.953125 C 2.023438 -0.878906 2.1875 -0.84375 2.375 -0.84375 C 2.5625 -0.84375 2.75 -0.878906 2.9375 -0.953125 C 3.125 -1.035156 3.273438 -1.128906 3.390625 -1.234375 Z M 3.390625 -1.234375 "/></g></g></g><g fill="#d62828" fill-opacity="1"><g transform="translate(89.852666, 23.467741)"><g><path d="M 0.578125 -7.0625 L 1.875 -7.0625 L 1.875 -1.625 C 1.875 -1.394531 1.910156 -1.238281 1.984375 -1.15625 C 2.066406 -1.070312 2.175781 -1.03125 2.3125 -1.03125 C 2.414062 -1.03125 2.519531 -1.039062 2.625 -1.0625 C 2.738281 -1.09375 2.835938 -1.128906 2.921875 -1.171875 L 3.09375 -0.1875 C 2.914062 -0.101562 2.710938 -0.0390625 2.484375 0 C 2.253906 0.0507812 2.046875 0.078125 1.859375 0.078125 C 1.453125 0.078125 1.132812 -0.03125 0.90625 -0.25 C 0.6875 -0.46875 0.578125 -0.773438 0.578125 -1.171875 Z M 0.578125 -7.0625 "/></g></g></g></svg>